jump_forces.mot																		
version=1																		
nRows=151																		
nColumns=19																		
inDegrees=yes																		
endheader																		
time	ground_force_vx	ground_force_vy	ground_force_vz	ground_force_px	ground_force_py	ground_force_pz	1_ground_force_vx	1_ground_force_vy	1_ground_force_vz	1_ground_force_px	1_ground_force_py	1_ground_force_pz	ground_torque_x	ground_torque_y	ground_torque_z	1_ground_torque_x	1_ground_torque_y	1_ground_torque_z
1.53225	0	0	0	0.454333	0	-0.071412	0	0	0	0.708673	0	-0.015192	0	0	0	0	0	0
1.5325	0	0	0	0.454327	0	-0.0714	0	0	0	0.708667	0	-0.015162	0	0	0	0	0	0
1.53275	0	0	0	0.454321	0	-0.071388	0	0	0	0.708661	0	-0.015133	0	0	0	0	0	0
1.533	0	0	0	0.454315	0	-0.071377	0	0	0	0.708655	0	-0.015103	0	0	0	0	0	0
1.53325	0	0	0	0.454309	0	-0.071365	0	0	0	0.708649	0	-0.015074	0	0	0	0	0	0
1.5335	0	0	0	0.454303	0	-0.071353	0	0	0	0.708643	0	-0.015044	0	0	0	0	0	0
1.53375	0	0	0	0.454297	0	-0.071342	0	0	0	0.708637	0	-0.015014	0	0	0	0	0	0
1.534	0	0	0	0.45429	0	-0.07133	0	0	0	0.708631	0	-0.014985	0	0	0	0	0	0
1.53425	0	0	0	0.454284	0	-0.071319	0	0	0	0.708625	0	-0.014955	0	0	0	0	0	0
1.5345	0	0	0	0.454278	0	-0.071307	0	0	0	0.708619	0	-0.014926	0	0	0	0	0	0
1.53475	0	0	0	0.454272	0	-0.071295	0	0	0	0.708613	0	-0.014896	0	0	0	0	0	0
1.535	0	0	0	0.454266	0	-0.071284	0	0	0	0.708607	0	-0.014867	0	0	0	0	0	0
1.53525	0	0	0	0.45426	0	-0.071272	0	0	0	0.708601	0	-0.014837	0	0	0	0	0	0
1.5355	0	0	0	0.454254	0	-0.07126	0	0	0	0.708595	0	-0.014808	0	0	0	0	0	0
1.53575	0	0	0	0.454247	0	-0.071249	0	0	0	0.708589	0	-0.014778	0	0	0	0	0	0
1.536	0	0	0	0.454241	0	-0.071237	0	0	0	0.708583	0	-0.014749	0	0	0	0	0	0
1.53625	0	0	0	0.454235	0	-0.071226	0	0	0	0.708577	0	-0.014719	0	0	0	0	0	0
1.5365	0	0	0	0.454229	0	-0.071214	0	0	0	0.708572	0	-0.014689	0	0	0	0	0	0
1.53675	0	0	0	0.454223	0	-0.071202	0	0	0	0.708566	0	-0.01466	0	0	0	0	0	0
1.537	0	0	0	0.454217	0	-0.071191	0	0	0	0.70856	0	-0.01463	0	0	0	0	0	0
1.53725	0	0	0	0.454211	0	-0.071179	0	0	0	0.708554	0	-0.014601	0	0	0	0	0	0
1.5375	0	0	0	0.454204	0	-0.071168	0	0	0	0.708548	0	-0.014571	0	0	0	0	0	0
1.53775	0	0	0	0.454198	0	-0.071156	0	0	0	0.708542	0	-0.014542	0	0	0	0	0	0
1.538	0	0	0	0.454192	0	-0.071144	0	0	0	0.708536	0	-0.014512	0	0	0	0	0	0
1.53825	0	0	0	0.454186	0	-0.071133	0	0	0	0.70853	0	-0.014483	0	0	0	0	0	0
1.5385	0	0	0	0.45418	0	-0.071121	0	0	0	0.708524	0	-0.014453	0	0	0	0	0	0
1.53875	0	0	0	0.454174	0	-0.071109	0	0	0	0.708518	0	-0.014424	0	0	0	0	0	0
1.539	0	0	0	0.454168	0	-0.071098	0	0	0	0.708512	0	-0.014394	0	0	0	0	0	0
1.53925	0	0	0	0.454161	0	-0.071086	0	0	0	0.708506	0	-0.014364	0	0	0	0	0	0
1.5395	0	0	0	0.454155	0	-0.071075	0	0	0	0.7085	0	-0.014335	0	0	0	0	0	0
1.53975	0	0	0	0.454149	0	-0.071063	0	0	0	0.708494	0	-0.014305	0	0	0	0	0	0
1.54	0	0	0	0.454143	0	-0.071051	0	0	0	0.708488	0	-0.014276	0	0	0	0	0	0
1.54025	0	0	0	0.454137	0	-0.07104	0	0	0	0.708482	0	-0.014246	0	0	0	0	0	0
1.5405	0	0	0	0.454131	0	-0.071028	0	0	0	0.708476	0	-0.014217	0	0	0	0	0	0
1.54075	0	0	0	0.454125	0	-0.071016	0	0	0	0.708471	0	-0.014187	0	0	0	0	0	0
1.541	0	0	0	0.454118	0	-0.071005	0	0	0	0.708465	0	-0.014158	0	0	0	0	0	0
1.54125	0	0	0	0.454112	0	-0.070993	0	0	0	0.708459	0	-0.014128	0	0	0	0	0	0
1.5415	0	0	0	0.454106	0	-0.070982	0	0	0	0.708453	0	-0.014099	0	0	0	0	0	0
1.54175	0	0	0	0.4541	0	-0.07097	0	0	0	0.708447	0	-0.014069	0	0	0	0	0	0
1.542	0	0	0	0.454094	0	-0.070958	0	0	0	0.708441	0	-0.014039	0	0	0	0	0	0
1.54225	0	0	0	0.454088	0	-0.070947	0	0	0	0.708435	0	-0.01401	0	0	0	0	0	0
1.5425	0	0	0	0.454082	0	-0.070935	0	0	0	0.708429	0	-0.01398	0	0	0	0	0	0
1.54275	0	0	0	0.454075	0	-0.070923	0	0	0	0.708423	0	-0.013951	0	0	0	0	0	0
1.543	0	0	0	0.454069	0	-0.070912	0	0	0	0.708417	0	-0.013921	0	0	0	0	0	0
1.54325	0	0	0	0.454063	0	-0.0709	0	0	0	0.708411	0	-0.013892	0	0	0	0	0	0
1.5435	0	0	0	0.454057	0	-0.070889	0	0	0	0.708405	0	-0.013862	0	0	0	0	0	0
1.54375	0	0	0	0.454051	0	-0.070877	0	0	0	0.708399	0	-0.013833	0	0	0	0	0	0
1.544	0	0	0	0.454045	0	-0.070865	0	0	0	0.708393	0	-0.013803	0	0	0	0	0	0
1.54425	0	0	0	0.454039	0	-0.070854	0	0	0	0.708387	0	-0.013774	0	0	0	0	0	0
1.5445	0	0	0	0.454032	0	-0.070842	0	0	0	0.708381	0	-0.013744	0	0	0	0	0	0
1.54475	0	0	0	0.454026	0	-0.070831	0	0	0	0.708375	0	-0.013714	0	0	0	0	0	0
1.545	0	0	0	0.45402	0	-0.070819	0	0	0	0.70837	0	-0.013685	0	0	0	0	0	0
1.54525	0	0	0	0.454014	0	-0.070807	0	0	0	0.708364	0	-0.013655	0	0	0	0	0	0
1.5455	0	0	0	0.454008	0	-0.070796	0	0	0	0.708358	0	-0.013626	0	0	0	0	0	0
1.54575	0	0	0	0.454002	0	-0.070784	0	0	0	0.708352	0	-0.013596	0	0	0	0	0	0
1.546	0	0	0	0.453996	0	-0.070772	0	0	0	0.708346	0	-0.013567	0	0	0	0	0	0
1.54625	0	0	0	0.453989	0	-0.070761	0	0	0	0.70834	0	-0.013537	0	0	0	0	0	0
1.5465	0	0	0	0.453983	0	-0.070749	0	0	0	0.708334	0	-0.013508	0	0	0	0	0	0
1.54675	0	0	0	0.453977	0	-0.070738	0	0	0	0.708328	0	-0.013478	0	0	0	0	0	0
1.547	0	0	0	0.453971	0	-0.070726	0	0	0	0.708322	0	-0.013449	0	0	0	0	0	0
1.54725	0	0	0	0.453965	0	-0.070714	0	0	0	0.708316	0	-0.013419	0	0	0	0	0	0
1.5475	0	0	0	0.453959	0	-0.070703	0	0	0	0.70831	0	-0.013389	0	0	0	0	0	0
1.54775	0	0	0	0.453953	0	-0.070691	0	0	0	0.708304	0	-0.01336	0	0	0	0	0	0
1.548	0	0	0	0.453946	0	-0.070679	0	0	0	0.708298	0	-0.01333	0	0	0	0	0	0
1.54825	0	0	0	0.45394	0	-0.070668	0	0	0	0.708292	0	-0.013301	0	0	0	0	0	0
1.5485	0	0	0	0.453934	0	-0.070656	0	0	0	0.708286	0	-0.013271	0	0	0	0	0	0
1.54875	0	0	0	0.453928	0	-0.070645	0	0	0	0.70828	0	-0.013242	0	0	0	0	0	0
1.549	0	0	0	0.453922	0	-0.070633	0	0	0	0.708275	0	-0.013212	0	0	0	0	0	0
1.54925	0	0	0	0.453916	0	-0.070621	0	0	0	0.708269	0	-0.013183	0	0	0	0	0	0
1.5495	0	0	0	0.45391	0	-0.07061	0	0	0	0.708263	0	-0.013153	0	0	0	0	0	0
1.54975	0	0	0	0.453903	0	-0.070598	0	0	0	0.708257	0	-0.013124	0	0	0	0	0	0
1.55	0	0	0	0.453897	0	-0.070587	0	0	0	0.708251	0	-0.013094	0	0	0	0	0	0
1.55025	0	0	0	0.453891	0	-0.070575	0	0	0	0.708245	0	-0.013064	0	0	0	0	0	0
1.5505	0	0	0	0.453885	0	-0.070563	0	0	0	0.708239	0	-0.013035	0	0	0	0	0	0
1.55075	0	0	0	0.453879	0	-0.070552	0	0	0	0.708233	0	-0.013005	0	0	0	0	0	0
1.551	0	0	0	0.453873	0	-0.07054	0	0	0	0.708227	0	-0.012976	0	0	0	0	0	0
1.55125	0	0	0	0.453867	0	-0.070528	0	0	0	0.708221	0	-0.012946	0	0	0	0	0	0
1.5515	0	0	0	0.45386	0	-0.070517	0	0	0	0.708215	0	-0.012917	0	0	0	0	0	0
1.55175	0	0	0	0.453854	0	-0.070505	0	0	0	0.708209	0	-0.012887	0	0	0	0	0	0
1.552	0	0	0	0.453848	0	-0.070494	0	0	0	0.708203	0	-0.012858	0	0	0	0	0	0
1.55225	0	0	0	0.453842	0	-0.070482	0	0	0	0.708197	0	-0.012828	0	0	0	0	0	0
1.5525	0	0	0	0.453836	0	-0.07047	0	0	0	0.708191	0	-0.012799	0	0	0	0	0	0
1.55275	0	0	0	0.45383	0	-0.070459	0	0	0	0.708185	0	-0.012769	0	0	0	0	0	0
1.553	0	0	0	0.453824	0	-0.070447	0	0	0	0.708179	0	-0.012739	0	0	0	0	0	0
1.55325	0	0	0	0.453817	0	-0.070435	0	0	0	0.708174	0	-0.01271	0	0	0	0	0	0
1.5535	0	0	0	0.453811	0	-0.070424	0	0	0	0.708168	0	-0.01268	0	0	0	0	0	0
1.55375	0	0	0	0.453805	0	-0.070412	0	0	0	0.708162	0	-0.012651	0	0	0	0	0	0
1.554	0	0	0	0.453799	0	-0.070401	0	0	0	0.708156	0	-0.012621	0	0	0	0	0	0
1.55425	0	0	0	0.453793	0	-0.070389	0	0	0	0.70815	0	-0.012592	0	0	0	0	0	0
1.5545	0	0	0	0.453787	0	-0.070377	0	0	0	0.708144	0	-0.012562	0	0	0	0	0	0
1.55475	0	0	0	0.453781	0	-0.070366	0	0	0	0.708138	0	-0.012533	0	0	0	0	0	0
1.555	0	0	0	0.453774	0	-0.070354	0	0	0	0.708132	0	-0.012503	0	0	0	0	0	0
1.55525	0	0	0	0.453768	0	-0.070342	0	0	0	0.708126	0	-0.012474	0	0	0	0	0	0
1.5555	0	0	0	0.453762	0	-0.070331	0	0	0	0.70812	0	-0.012444	0	0	0	0	0	0
1.55575	0	0	0	0.453756	0	-0.070319	0	0	0	0.708114	0	-0.012414	0	0	0	0	0	0
1.556	0	0	0	0.45375	0	-0.070308	0	0	0	0.708108	0	-0.012385	0	0	0	0	0	0
1.55625	0	0	0	0.453744	0	-0.070296	0	0	0	0.708102	0	-0.012355	0	0	0	0	0	0
1.5565	0	0	0	0.453738	0	-0.070284	0	0	0	0.708096	0	-0.012326	0	0	0	0	0	0
1.55675	0	0	0	0.453731	0	-0.070273	0	0	0	0.70809	0	-0.012296	0	0	0	0	0	0
1.557	0	0	0	0.453725	0	-0.070261	0	0	0	0.708084	0	-0.012267	0	0	0	0	0	0
1.55725	0	0	0	0.453719	0	-0.07025	0	0	0	0.708078	0	-0.012237	0	0	0	0	0	0
1.5575	0	0	0	0.453713	0	-0.070238	0	0	0	0.708073	0	-0.012208	0	0	0	0	0	0
1.55775	0	0	0	0.453707	0	-0.070226	0	0	0	0.708067	0	-0.012178	0	0	0	0	0	0
1.558	0	0	0	0.453701	0	-0.070215	0	0	0	0.708061	0	-0.012149	0	0	0	0	0	0
1.55825	0	0	0	0.453695	0	-0.070203	0	0	0	0.708055	0	-0.012119	0	0	0	0	0	0
1.5585	0	0	0	0.453688	0	-0.070191	0	0	0	0.708049	0	-0.012089	0	0	0	0	0	0
1.55875	0	0	0	0.453682	0	-0.07018	0	0	0	0.708043	0	-0.01206	0	0	0	0	0	0
1.559	0	0	0	0.453676	0	-0.070168	0	0	0	0.708037	0	-0.01203	0	0	0	0	0	0
1.55925	0	0	0	0.45367	0	-0.070157	0	0	0	0.708031	0	-0.012001	0	0	0	0	0	0
1.5595	0	0	0	0.453664	0	-0.070145	0	0	0	0.708025	0	-0.011971	0	0	0	0	0	0
1.55975	0	0	0	0.453658	0	-0.070133	0	0	0	0.708019	0	-0.011942	0	0	0	0	0	0
1.56	0	0	0	0.453652	0	-0.070122	0	0	0	0.708013	0	-0.011912	0	0	0	0	0	0
1.56025	0	0	0	0.453646	0	-0.07011	0	0	0	0.708007	0	-0.011883	0	0	0	0	0	0
1.5605	0	0	0	0.453639	0	-0.070098	0	0	0	0.708001	0	-0.011853	0	0	0	0	0	0
1.56075	0	0	0	0.453633	0	-0.070087	0	0	0	0.707995	0	-0.011824	0	0	0	0	0	0
1.561	0	0	0	0.453627	0	-0.070075	0	0	0	0.707989	0	-0.011794	0	0	0	0	0	0
1.56125	0	0	0	0.453621	0	-0.070064	0	0	0	0.707983	0	-0.011764	0	0	0	0	0	0
1.5615	0	0	0	0.453615	0	-0.070052	0	0	0	0.707977	0	-0.011735	0	0	0	0	0	0
1.56175	0	0	0	0.453609	0	-0.07004	0	0	0	0.707972	0	-0.011705	0	0	0	0	0	0
1.562	0	0	0	0.453603	0	-0.070029	0	0	0	0.707966	0	-0.011676	0	0	0	0	0	0
1.56225	0	0	0	0.453596	0	-0.070017	0	0	0	0.70796	0	-0.011646	0	0	0	0	0	0
1.5625	0	0	0	0.45359	0	-0.070006	0	0	0	0.707954	0	-0.011617	0	0	0	0	0	0
1.56275	0	0	0	0.453584	0	-0.069994	0	0	0	0.707948	0	-0.011587	0	0	0	0	0	0
1.563	0	0	0	0.453578	0	-0.069982	0	0	0	0.707942	0	-0.011558	0	0	0	0	0	0
1.56325	0	0	0	0.453572	0	-0.069971	0	0	0	0.707936	0	-0.011528	0	0	0	0	0	0
1.5635	0	0	0	0.453566	0	-0.069959	0	0	0	0.70793	0	-0.011499	0	0	0	0	0	0
1.56375	0	0	0	0.45356	0	-0.069947	0	0	0	0.707924	0	-0.011469	0	0	0	0	0	0
1.564	0	0	0	0.453553	0	-0.069936	0	0	0	0.707918	0	-0.011439	0	0	0	0	0	0
1.56425	0	0	0	0.453547	0	-0.069924	0	0	0	0.707912	0	-0.01141	0	0	0	0	0	0
1.5645	0	0	0	0.453541	0	-0.069913	0	0	0	0.707906	0	-0.01138	0	0	0	0	0	0
1.56475	0	0	0	0.453535	0	-0.069901	0	0	0	0.7079	0	-0.011351	0	0	0	0	0	0
1.565	0	0	0	0.453529	0	-0.069889	0	0	0	0.707894	0	-0.011321	0	0	0	0	0	0
1.56525	0	0	0	0.453523	0	-0.069878	0	0	0	0.707888	0	-0.011292	0	0	0	0	0	0
1.5655	0	0	0	0.453517	0	-0.069866	0	0	0	0.707882	0	-0.011262	0	0	0	0	0	0
1.56575	0	0	0	0.45351	0	-0.069854	0	0	0	0.707876	0	-0.011233	0	0	0	0	0	0
1.566	0	0	0	0.453504	0	-0.069843	0	0	0	0.707871	0	-0.011203	0	0	0	0	0	0
1.56625	0	0	0	0.453498	0	-0.069831	0	0	0	0.707865	0	-0.011174	0	0	0	0	0	0
1.5665	0	0	0	0.453492	0	-0.06982	0	0	0	0.707859	0	-0.011144	0	0	0	0	0	0
1.56675	0	0	0	0.453486	0	-0.069808	0	0	0	0.707853	0	-0.011114	0	0	0	0	0	0
1.567	0	0	0	0.45348	0	-0.069796	0	0	0	0.707847	0	-0.011085	0	0	0	0	0	0
1.56725	0	0	0	0.453474	0	-0.069785	0	0	0	0.707841	0	-0.011055	0	0	0	0	0	0
1.5675	0	0	0	0.453467	0	-0.069773	0	0	0	0.707835	0	-0.011026	0	0	0	0	0	0
1.56775	0	0	0	0.453461	0	-0.069761	0	0	0	0.707829	0	-0.010996	0	0	0	0	0	0
1.568	0	0	0	0.453455	0	-0.06975	0	0	0	0.707823	0	-0.010967	0	0	0	0	0	0
1.56825	0	0	0	0.453449	0	-0.069738	0	0	0	0.707817	0	-0.010937	0	0	0	0	0	0
1.5685	0	0	0	0.453443	0	-0.069727	0	0	0	0.707811	0	-0.010908	0	0	0	0	0	0
1.56875	0	0	0	0.453437	0	-0.069715	0	0	0	0.707805	0	-0.010878	0	0	0	0	0	0
1.569	0	0	0	0.453431	0	-0.069703	0	0	0	0.707799	0	-0.010849	0	0	0	0	0	0
1.56925	0	0	0	0.453424	0	-0.069692	0	0	0	0.707793	0	-0.010819	0	0	0	0	0	0
1.5695	0	0	0	0.453418	0	-0.06968	0	0	0	0.707787	0	-0.010789	0	0	0	0	0	0
1.56975	0	0	0	0.453412	0	-0.069669	0	0	0	0.707781	0	-0.01076	0	0	0	0	0	0
